<?xml version="1.0" encoding="UTF-8"?>
<svg
   viewBox="0 0 328.1169 166.13543"
   version="1.1"
   xmlns="http://www.w3.org/2000/svg"
   id="svg1264"
><path
     style="fill:none;stroke:#ddb771;stroke-width:9;stroke-dasharray:none;stroke-opacity:1"
     d="m 307.48158,50.931646 c -1.72122,-0.501398 -3.69313,0.108511 -5.19733,1.54161 -0.9317,0.931702 -1.21794,1.936369 -1.29091,4.662251 l -0.14406,3.440561 -2.04488,0.03555 -2.11597,0.03555 -0.0356,-2.475184 c -0.10851,-4.194528 -1.1824,-6.129026 -3.94383,-7.169239 -1.68379,-0.609909 -4.73334,0.430304 -5.62762,1.971915 -0.35921,0.572492 -0.7521,2.544407 -0.78952,4.30304 l -0.10851,3.262827 -4.33672,0.179605 c -4.94849,0.215152 -7.88953,1.07576 -10.82682,3.369468 l -2.04301,5.245777 h -47.43923 l -25.67044,0.0019 -1.21795,-12.202429 c -2.50886,-12.476945 -6.27308,-20.615304 -12.8717,-27.786414 -6.09535,-6.667841 -12.47695,-10.254331 -21.47404,-12.082188 -7.99617,-1.612704 -15.84829,-0.215152 -26.24481,4.662251 -9.3563,4.40968 -13.15794,4.911078 -17.85387,2.508859 -1.61458,-0.825061 -5.98871,-3.549073 -9.75106,-6.09535 C 95.804662,11.135314 89.136818,7.5506945 81.178064,4.8977765 73.219311,2.2448585 66.723591,1.1298105 58.26344,1.0587165 48.259808,1.0231695 38.723897,3.4609355 30.907331,8.0520925 25.923288,11.026803 18.14414,18.663764 14.881313,23.789994 5.846799,37.917062 1.614853,54.76627 1.1134552,78.717366 0.39690536,110.55425 6.67186,133.89543 20.007543,148.95233 c 10.970881,12.40398 26.783618,17.74724 46.321291,15.70236 13.086855,-1.39756 23.627432,-5.84278 40.119296,-16.88663 13.8745,-9.35818 14.77066,-9.46482 27.85751,-3.40501 7.27775,3.40501 11.15049,4.62483 16.02602,5.19732 4.94849,0.57436 10.32542,-0.14406 15.95492,-2.1141 6.05981,-2.18707 9.75294,-4.51819 14.44886,-9.28521 7.09815,-7.09815 11.25713,-15.84829 13.8745,-29.14842 l 1.2535,-13.296317 h 25.67231 47.43923 l 2.04301,6.304107 c 2.93916,2.29558 5.84465,3.19174 10.86237,3.40502 l 4.41155,0.1796 -0.0355,2.75956 c -0.0356,4.83999 1.65012,7.09815 5.30583,6.95596 1.93637,-0.073 3.97938,-1.68567 4.62483,-3.69313 0.21516,-0.64546 0.39476,-2.32926 0.46773,-3.69313 l 0.0355,-2.47519 2.11598,0.0356 2.04487,0.0355 0.14406,3.44056 c 0.10662,2.54628 0.39289,3.76422 1.1824,4.55374 1.54161,1.54161 3.29838,2.07855 5.16178,1.57716 2.93916,-0.71655 3.79977,-2.36668 3.98125,-7.27775 l 0.0711,-2.29371 1.75676,-0.17774 c 5.55654,-0.60991 10.28988,-3.90641 12.5125,-8.856777 1.18427,-2.61737 1.362,-2.18637 1.39755,-13.1217 0,-14.342219 -0.32179,-13.838257 -4.58742,-18.103879 -2.83252,-2.832523 -5.48544,-4.123435 -9.32263,-4.518193 l -1.75489,-0.179605 -0.0711,-2.293707 c -0.18522,-4.765149 -1.11692,-6.557459 -3.84093,-7.346973 z"
     id="path2990" /><path
     style="fill:none;stroke:#ddb771;stroke-width:9;stroke-dasharray:none;stroke-opacity:1"
     d="m 131.77373,77.564977 c 1.5493,4.1253 1.59555,9.671996 0.0463,13.797296 -1.81754,4.65776 -6.64813,9.493737 -11.21048,11.047097 -12.49617,4.34754 -25.921918,-5.102217 -25.702238,-18.100848 0.0879,-4.792015 1.59556,-8.695077 4.7404,-12.19996 3.322908,-3.771106 6.204158,-5.502714 10.724888,-6.389353 8.9027,-1.819577 18.03202,3.240975 21.4012,11.845768 z"
     id="path2996" /></svg>
